<svg width="501" height="501" viewBox="0 0 501 501" fill="none" xmlns="http://www.w3.org/2000/svg">
<path d="M250.005 443.982L132.099 326.055C108.782 302.748 92.9002 273.05 86.4635 240.716C80.0268 208.382 83.3241 174.866 95.9383 144.406C108.553 113.947 129.917 87.9125 157.329 69.5966C184.742 51.2808 216.97 41.5063 249.938 41.5094C282.907 41.5124 315.133 51.293 342.542 69.614C369.951 87.935 391.311 113.973 403.919 144.435C416.528 174.897 419.819 208.414 413.376 240.747C406.933 273.079 391.046 302.775 367.724 326.077L250.005 443.982Z" fill="#FF0000" stroke="#FF0000" stroke-width="8" stroke-linecap="round" stroke-linejoin="round"/>
<circle cx="250.009" cy="205.01" r="100" transform="rotate(-179.995 250.009 205.01)" fill="#D9D9D9"/>
</svg>
